PathFileType	4	(X/Y/Z)
DataRate	CameraRate	NumFrames	NumMarkers	Units	OrigDataRate	OrigDataStartFrame	OrigNumFrames	
	120.0	120.0	12	39	mm	120.0	29	225
Frame#	Time	midhip	hip_r	hip_l	knee_r	knee_l	ankle_r	ankle_l	midasis	asis_r	asis_l	psis_r	psis_l	epicondLat_r	epicondLat_l	epicondMed_r	epicondMed_l	malleolusLat_r	malleolusLat_l	malleolusMedv_r	malleolusMedv_l	heel_r	heel_l	sternalnotch	xyphoidprocess	neck	subclavicle_r	subclavicle_l	toe_r	toe_l	thighwand_r	thighwand_l	upperleg1_r	upperleg1_l	upperleg2_r	upperleg2_l	shankwand_r	shankwand_l	lowerleg1_r	lowerleg1_l
	X1	Y1	Z1	X2	Y2	Z2	X3	Y3	Z3	X4	Y4	Z4	X5	Y5	Z5	X6	Y6	Z6	X7	Y7	Z7	X8	Y8	Z8	X9	Y9	Z9	X10	Y10	Z10	X11	Y11	Z11	X12	Y12	Z12	X13	Y13	Z13	X14	Y14	Z14	X15	Y15	Z15	X16	Y16	Z16	X17	Y17	Z17	X18	Y18	Z18	X19	Y19	Z19	X20	Y20	Z20	X21	Y21	Z21	X22	Y22	Z22	X23	Y23	Z23	X24	Y24	Z24	X25	Y25	Z25	X26	Y26	Z26	X27	Y27	Z27	X28	Y28	Z28	X29	Y29	Z29	X30	Y30	Z30	X31	Y31	Z31	X32	Y32	Z32	X33	Y33	Z33	X34	Y34	Z34	X35	Y35	Z35	X36	Y36	Z36	X37	Y37	Z37	X38	Y38	Z38	X39	Y39	Z39

	29	0.24167	716.251	910.757	-275.330	714.718	891.459	-226.129	711.964	893.520	-332.643	704.022	479.341	-201.356	710.074	481.739	-362.657	624.916	70.224	-179.386	655.889	68.834	-357.828	783.111	995.967	-279.188	785.865	993.907	-172.718	780.358	998.027	-385.658	580.873	1003.470	-229.908	576.654	1005.570	-318.325	716.584	482.506	-143.283	714.832	486.029	-421.811	691.345	500.286	-260.235	699.336	490.754	-314.891	623.103	72.609	-141.504	651.913	68.896	-397.127	622.041	70.393	-209.970	663.708	75.439	-328.532	580.459	45.888	-190.370	609.451	45.572	-355.942	696.425	1392.426	-282.628	738.814	1191.939	-287.488	608.069	1461.081	-288.722	710.405	1392.515	-201.390	707.303	1390.400	-356.411	745.457	42.876	-183.232	783.517	42.318	-372.932	756.548	601.708	-71.117	856.809	625.530	-363.974	767.117	659.121	-144.478	781.077	684.578	-400.037	763.695	577.333	-165.058	771.468	598.355	-401.626	653.764	144.235	-78.305	770.918	170.945	-356.980	644.890	202.538	-141.028	706.145	224.966	-365.387
	30	0.25000	716.199	910.667	-275.280	714.729	891.450	-226.116	712.041	893.509	-332.632	704.034	479.326	-201.345	710.157	481.719	-362.611	624.913	70.198	-179.400	655.878	68.818	-357.814	783.129	995.975	-279.133	785.815	993.916	-172.665	780.442	998.034	-385.601	580.826	1003.429	-229.943	576.659	1005.523	-318.366	716.594	482.491	-143.272	714.941	486.003	-421.764	691.369	500.256	-260.215	699.490	490.702	-314.838	623.098	72.581	-141.519	651.918	68.882	-397.115	622.058	70.386	-210.000	663.697	75.397	-328.521	580.459	45.872	-190.378	609.449	45.566	-355.936	696.069	1392.325	-282.652	738.227	1191.795	-287.702	607.918	1461.043	-288.734	709.714	1392.250	-201.350	707.247	1390.419	-356.400	745.458	42.873	-183.231	783.515	42.300	-372.916	756.529	601.696	-71.101	856.923	625.542	-363.896	767.122	659.099	-144.464	781.181	684.549	-399.960	763.700	577.316	-165.030	771.600	598.338	-401.557	653.765	144.234	-78.303	770.937	170.920	-356.960	644.964	202.531	-141.043	706.195	224.923	-365.350
	31	0.25833	716.122	910.534	-275.226	714.744	891.442	-226.102	712.117	893.505	-332.619	704.047	479.314	-201.334	710.227	481.697	-362.565	624.902	70.159	-179.419	655.859	68.796	-357.798	783.137	995.994	-279.075	785.763	993.932	-172.608	780.511	998.055	-385.542	580.776	1003.378	-229.975	576.664	1005.469	-318.406	716.603	482.478	-143.260	715.038	485.976	-421.716	691.444	500.239	-260.225	699.555	490.726	-314.881	623.084	72.540	-141.537	651.916	68.862	-397.101	622.037	70.411	-209.990	663.642	75.379	-328.518	580.457	45.845	-190.387	609.447	45.543	-355.926	695.572	1392.329	-282.802	737.552	1191.760	-287.812	607.732	1461.010	-288.739	708.770	1392.161	-201.531	707.154	1390.483	-356.385	745.458	42.874	-183.232	783.507	42.277	-372.905	756.498	601.679	-71.081	857.023	625.563	-363.817	767.093	659.123	-144.453	781.325	684.585	-399.917	763.712	577.326	-165.021	771.734	598.362	-401.534	653.766	144.231	-78.301	770.951	170.898	-356.940	644.930	202.569	-141.044	706.254	224.948	-365.355
	32	0.26667	716.046	910.400	-275.171	714.756	891.436	-226.084	712.181	893.504	-332.603	704.060	479.301	-201.321	710.292	481.675	-362.516	624.894	70.113	-179.438	655.839	68.773	-357.782	783.136	996.016	-279.017	785.710	993.949	-172.549	780.562	998.084	-385.485	580.724	1003.324	-230.008	576.669	1005.412	-318.448	716.614	482.465	-143.246	715.128	485.949	-421.665	691.503	500.272	-260.239	699.538	490.814	-314.976	623.075	72.491	-141.556	651.912	68.840	-397.087	621.980	70.452	-209.951	663.571	75.381	-328.518	580.454	45.814	-190.396	609.446	45.519	-355.918	695.747	1392.480	-282.697	738.353	1192.039	-287.573	607.513	1460.963	-288.752	709.276	1392.479	-201.432	707.036	1390.557	-356.372	745.458	42.872	-183.234	783.500	42.249	-372.894	756.462	601.662	-71.057	857.110	625.586	-363.737	767.050	659.191	-144.437	781.471	684.671	-399.893	763.712	577.380	-165.016	771.841	598.424	-401.539	653.771	144.224	-78.297	770.964	170.871	-356.916	644.847	202.629	-141.036	706.302	225.024	-365.372
	33	0.27500	716.009	910.330	-275.121	714.758	891.424	-226.060	712.225	893.498	-332.580	704.074	479.283	-201.304	710.363	481.649	-362.466	624.909	70.062	-179.453	655.830	68.747	-357.770	783.126	996.029	-278.960	785.658	993.956	-172.492	780.595	998.102	-385.427	580.672	1003.273	-230.042	576.672	1005.362	-318.487	716.628	482.446	-143.229	715.218	485.919	-421.613	691.523	500.279	-260.194	699.553	490.855	-314.988	623.089	72.437	-141.571	651.916	68.817	-397.076	621.965	70.474	-209.962	663.550	75.371	-328.513	580.453	45.790	-190.403	609.449	45.508	-355.914	695.898	1392.615	-282.648	739.124	1192.307	-287.489	607.282	1460.906	-288.761	709.686	1392.728	-201.362	706.957	1390.665	-356.420	745.463	42.860	-183.236	783.501	42.221	-372.886	756.433	601.643	-71.031	857.190	625.594	-363.654	767.030	659.240	-144.413	781.548	684.721	-399.841	763.706	577.411	-164.978	771.904	598.463	-401.506	653.791	144.210	-78.289	770.982	170.830	-356.887	644.872	202.647	-141.038	706.334	225.033	-365.359
	34	0.28333	715.998	910.313	-275.081	714.742	891.404	-226.028	712.247	893.480	-332.549	704.093	479.256	-201.287	710.447	481.619	-362.415	624.953	70.011	-179.463	655.840	68.719	-357.763	783.112	996.021	-278.900	785.606	993.946	-172.434	780.619	998.097	-385.366	580.620	1003.232	-230.078	576.670	1005.323	-318.519	716.648	482.418	-143.213	715.315	485.887	-421.562	691.537	500.223	-260.095	699.612	490.827	-314.906	623.133	72.383	-141.580	651.935	68.793	-397.069	621.994	70.471	-210.012	663.584	75.342	-328.507	580.455	45.781	-190.407	609.454	45.511	-355.917	695.999	1392.588	-282.593	739.570	1192.363	-287.771	607.051	1460.853	-288.774	709.995	1392.635	-201.299	706.873	1390.740	-356.440	745.477	42.833	-183.239	783.514	42.193	-372.880	756.419	601.622	-71.005	857.267	625.579	-363.568	767.002	659.243	-144.366	781.580	684.704	-399.763	763.699	577.404	-164.903	771.944	598.442	-401.429	653.828	144.184	-78.282	771.007	170.769	-356.850	644.977	202.620	-141.046	706.345	224.957	-365.317
	35	0.29167	715.997	910.329	-275.049	714.708	891.378	-225.989	712.250	893.452	-332.510	704.122	479.223	-201.273	710.549	481.587	-362.361	625.025	69.967	-179.463	655.878	68.690	-357.760	783.098	995.993	-278.839	785.554	993.921	-172.379	780.642	998.066	-385.299	580.570	1003.207	-230.115	576.662	1005.298	-318.546	716.677	482.383	-143.199	715.421	485.853	-421.508	691.622	500.134	-260.056	699.728	490.695	-314.809	623.205	72.337	-141.581	651.975	68.768	-397.066	622.020	70.414	-209.992	663.694	75.280	-328.506	580.459	45.790	-190.407	609.462	45.523	-355.925	695.780	1392.564	-282.566	739.337	1192.331	-287.569	606.844	1460.831	-288.791	709.722	1392.668	-201.361	706.702	1390.662	-356.307	745.502	42.795	-183.242	783.539	42.166	-372.872	756.417	601.604	-70.977	857.342	625.538	-363.477	766.985	659.189	-144.323	781.575	684.609	-399.681	763.726	577.365	-164.852	771.989	598.357	-401.343	653.881	144.148	-78.275	771.041	170.691	-356.808	645.184	202.534	-141.051	706.360	224.824	-365.268
	36	0.30000	716.040	910.426	-275.015	714.663	891.351	-225.945	712.242	893.418	-332.467	704.156	479.190	-201.262	710.666	481.557	-362.306	625.113	69.938	-179.452	655.939	68.665	-357.759	783.086	995.954	-278.779	785.505	993.888	-172.329	780.667	998.019	-385.230	580.520	1003.199	-230.149	576.652	1005.288	-318.568	716.709	482.348	-143.187	715.533	485.824	-421.453	691.757	500.014	-260.072	699.911	490.452	-314.721	623.292	72.309	-141.570	652.033	68.750	-397.065	622.049	70.314	-209.928	663.883	75.175	-328.502	580.463	45.818	-190.401	609.471	45.537	-355.931	695.464	1392.521	-282.451	738.840	1192.242	-287.197	606.656	1460.836	-288.794	709.242	1392.681	-201.200	706.534	1390.545	-356.185	745.532	42.753	-183.244	783.572	42.147	-372.858	756.423	601.593	-70.943	857.417	625.483	-363.381	767.009	659.091	-144.295	781.550	684.432	-399.584	763.786	577.264	-164.827	772.056	598.220	-401.253	653.938	144.108	-78.268	771.081	170.605	-356.762	645.496	202.394	-141.056	706.375	224.635	-365.196
	37	0.30833	716.106	910.570	-274.977	714.616	891.335	-225.905	712.235	893.393	-332.428	704.196	479.167	-201.255	710.782	481.544	-362.257	625.189	69.935	-179.432	656.002	68.654	-357.759	783.074	995.922	-278.723	785.454	993.867	-172.284	780.695	997.978	-385.163	580.469	1003.201	-230.179	576.639	1005.286	-318.583	716.742	482.323	-143.178	715.641	485.810	-421.405	691.886	499.909	-260.099	700.026	490.278	-314.645	623.364	72.308	-141.550	652.092	68.744	-397.065	622.091	70.243	-209.921	664.045	75.097	-328.496	580.469	45.856	-190.389	609.482	45.553	-355.934	695.791	1392.162	-282.397	739.085	1191.896	-288.253	606.469	1460.843	-288.812	710.052	1391.972	-201.282	706.423	1390.499	-356.151	745.559	42.720	-183.246	783.605	42.147	-372.844	756.421	601.598	-70.902	857.485	625.440	-363.284	767.038	659.016	-144.273	781.569	684.269	-399.504	763.842	577.157	-164.814	772.127	598.111	-401.171	653.981	144.079	-78.261	771.119	170.534	-356.720	645.704	202.281	-141.067	706.400	224.490	-365.127
	38	0.31667	716.152	910.687	-274.936	714.579	891.336	-225.873	712.240	893.388	-332.397	704.228	479.164	-201.247	710.883	481.552	-362.219	625.224	69.961	-179.407	656.047	68.659	-357.761	783.059	995.920	-278.670	785.396	993.870	-172.242	780.721	997.970	-385.099	580.418	1003.205	-230.207	576.623	1005.283	-318.593	716.763	482.319	-143.168	715.733	485.819	-421.367	691.989	499.872	-260.137	700.092	490.222	-314.591	623.392	72.336	-141.526	652.132	68.754	-397.066	622.127	70.224	-209.937	664.114	75.093	-328.489	580.476	45.893	-190.374	609.493	45.568	-355.934	694.804	1392.418	-282.527	737.820	1192.062	-287.267	606.284	1460.842	-288.847	708.096	1392.448	-201.269	706.311	1390.514	-356.123	745.572	42.706	-183.250	783.628	42.164	-372.835	756.398	601.622	-70.854	857.541	625.429	-363.191	767.043	658.988	-144.257	781.614	684.202	-399.462	763.876	577.127	-164.807	772.201	598.067	-401.112	653.999	144.067	-78.254	771.142	170.497	-356.689	645.763	202.239	-141.079	706.441	224.442	-365.106
	39	0.32500	716.179	910.769	-274.891	714.557	891.356	-225.843	712.259	893.405	-332.368	704.242	479.184	-201.234	710.957	481.579	-362.189	625.207	70.009	-179.381	656.062	68.679	-357.757	783.034	995.954	-278.615	785.330	993.907	-172.193	780.739	998.001	-385.037	580.365	1003.199	-230.232	576.604	1005.268	-318.598	716.764	482.338	-143.153	715.803	485.847	-421.338	692.036	499.922	-260.136	700.178	490.237	-314.549	623.367	72.388	-141.500	652.145	68.777	-397.062	622.132	70.258	-209.930	664.100	75.148	-328.480	580.483	45.917	-190.360	609.499	45.577	-355.933	695.673	1392.347	-282.355	739.489	1192.186	-287.922	606.076	1460.830	-288.877	710.072	1392.342	-201.292	706.183	1390.578	-356.096	745.569	42.718	-183.253	783.634	42.193	-372.827	756.346	601.658	-70.801	857.579	625.456	-363.097	767.053	659.029	-144.237	781.646	684.239	-399.433	763.881	577.186	-164.772	772.280	598.092	-401.061	653.983	144.072	-78.247	771.144	170.504	-356.670	645.721	202.263	-141.074	706.482	224.486	-365.106
	40	0.33333	716.199	910.828	-274.842	714.548	891.391	-225.811	712.290	893.441	-332.337	704.239	479.221	-201.215	710.999	481.617	-362.164	625.142	70.067	-179.358	656.044	68.707	-357.747	783.000	996.020	-278.555	785.255	993.972	-172.134	780.744	998.068	-384.975	580.310	1003.178	-230.255	576.584	1005.238	-318.601	716.746	482.374	-143.130	715.845	485.886	-421.312	692.038	500.021	-260.089	700.166	490.377	-314.565	623.294	72.448	-141.477	652.128	68.808	-397.052	622.108	70.322	-209.933	663.976	75.247	-328.469	580.488	45.923	-190.350	609.498	45.582	-355.932	694.679	1392.644	-282.454	738.366	1192.430	-287.062	605.856	1460.797	-288.887	708.119	1392.805	-201.214	706.058	1390.701	-356.075	745.550	42.754	-183.251	783.626	42.225	-372.817	756.264	601.699	-70.745	857.604	625.516	-363.001	767.043	659.153	-144.218	781.690	684.388	-399.407	763.855	577.304	-164.717	772.326	598.213	-401.033	653.934	144.092	-78.241	771.127	170.546	-356.657	645.463	202.350	-141.049	706.545	224.651	-365.127
